<?xml version="1.0" standalone="no"?>
<!DOCTYPE svg PUBLIC "-//W3C//DTD SVG 20010904//EN"
 "http://www.w3.org/TR/2001/REC-SVG-20010904/DTD/svg10.dtd">
<svg version="1.0" xmlns="http://www.w3.org/2000/svg"
 width="98.000000pt" height="146.000000pt" viewBox="0 0 98.000000 146.000000"
 preserveAspectRatio="xMidYMid meet">

<g transform="translate(0.000000,146.000000) scale(0.100000,-0.100000)"
fill="#000000" stroke="none">
<path d="M495 1111 c-11 -4 -39 -6 -63 -3 -35 4 -47 1 -67 -18 -14 -13 -25
-28 -25 -34 0 -7 -15 -20 -34 -30 -49 -26 -64 -67 -43 -112 10 -19 17 -49 17
-67 0 -40 23 -75 53 -79 14 -2 28 -16 39 -39 12 -26 28 -41 56 -52 21 -8 44
-22 51 -31 8 -9 19 -16 26 -16 7 0 24 -18 39 -40 21 -32 24 -44 16 -60 -5 -10
-10 -26 -10 -35 0 -36 -49 -61 -77 -40 -26 21 -49 20 -29 -1 14 -14 14 -34 0
-34 -3 0 -2 5 1 10 3 6 2 10 -3 10 -15 0 -23 -30 -9 -30 7 0 4 -5 -5 -11 -10
-5 -18 -16 -18 -24 0 -8 -9 -19 -20 -25 -16 -9 -18 -13 -8 -24 9 -9 17 -11 24
-5 7 6 24 8 39 5 19 -4 32 2 47 19 19 22 46 26 33 5 -3 -5 6 -12 20 -16 28 -7
65 18 65 43 0 7 5 13 10 13 6 0 10 6 10 14 0 8 13 17 30 21 49 11 88 83 60
111 -6 6 -12 39 -14 73 -2 47 -7 66 -24 81 -12 11 -26 20 -31 20 -6 0 -20 13
-32 30 -12 16 -39 36 -60 44 -20 8 -40 20 -44 26 -4 6 -18 15 -31 20 -26 10
-64 65 -64 92 0 26 36 41 79 32 20 -4 39 -7 44 -6 4 1 12 -9 18 -22 14 -30 56
-49 100 -44 47 4 83 57 76 112 -7 48 -22 64 -67 67 -21 2 -49 15 -68 31 -33
28 -68 34 -107 19z"/>
<path d="M420 305 c0 -10 10 -15 33 -14 17 0 25 3 17 6 -8 3 -23 10 -32 15
-13 6 -18 5 -18 -7z"/>
</g>
</svg>
