<?xml version="1.0" encoding="UTF-8"?>
<!DOCTYPE svg PUBLIC "-//W3C//DTD SVG 1.1//EN" "http://www.w3.org/Graphics/SVG/1.1/DTD/svg11.dtd">
<svg xmlns="http://www.w3.org/2000/svg" version="1.1" width="98px" height="146px" style="shape-rendering:geometricPrecision; text-rendering:geometricPrecision; image-rendering:optimizeQuality; fill-rule:evenodd; clip-rule:evenodd" xmlns:xlink="http://www.w3.org/1999/xlink">
<g><path style="opacity:0.03" fill="#f5f8ff" d="M 59.5,31.5 C 61.5323,32.0478 62.5323,33.3812 62.5,35.5C 60.7376,34.7377 59.7376,33.4044 59.5,31.5 Z"/></g>
<g><path style="opacity:0.169" fill="#fffefe" d="M 47.5,32.5 C 47.5,32.8333 47.5,33.1667 47.5,33.5C 43.4454,33.1758 39.4454,33.5091 35.5,34.5C 32.8545,36.1319 31.5211,38.4652 31.5,41.5C 29.5,41.5 27.5,41.5 25.5,41.5C 26.9187,40.5489 28.5853,40.2155 30.5,40.5C 30.5211,37.4652 31.8545,35.1319 34.5,33.5C 38.7828,32.5078 43.1161,32.1744 47.5,32.5 Z"/></g>
<g><path style="opacity:0.995" fill="#664ac0" d="M 59.5,31.5 C 59.7376,33.4044 60.7376,34.7377 62.5,35.5C 63.1667,35.5 63.5,35.8333 63.5,36.5C 62.9569,36.56 62.6236,36.8933 62.5,37.5C 63.1667,38.1667 63.8333,38.8333 64.5,39.5C 62.3025,45.0226 58.9692,49.6893 54.5,53.5C 54.1667,53.5 53.8333,53.5 53.5,53.5C 52.0821,51.6921 50.0821,51.0254 47.5,51.5C 48.3131,48.3941 49.3131,45.3941 50.5,42.5C 50.0815,39.2442 49.0815,36.2442 47.5,33.5C 47.5,33.1667 47.5,32.8333 47.5,32.5C 49.3838,31.3248 51.5505,30.6582 54,30.5C 56.0326,30.5056 57.866,30.8389 59.5,31.5 Z"/></g>
<g><path style="opacity:0.991" fill="#784fc8" d="M 47.5,33.5 C 49.0815,36.2442 50.0815,39.2442 50.5,42.5C 49.3131,45.3941 48.3131,48.3941 47.5,51.5C 46.1667,51.5 44.8333,51.5 43.5,51.5C 41.5946,49.951 41.2613,48.1176 42.5,46C 40.9391,45.6824 39.7724,44.8491 39,43.5C 38.2825,44.4506 37.4491,44.6172 36.5,44C 36.6192,42.7188 36.1192,41.5521 35,40.5C 34.1165,43.6531 32.9498,43.9865 31.5,41.5C 31.5211,38.4652 32.8545,36.1319 35.5,34.5C 39.4454,33.5091 43.4454,33.1758 47.5,33.5 Z"/></g>
<g><path style="opacity:0.124" fill="#f3f8ff" d="M 63.5,36.5 C 69.2245,35.8936 73.2245,38.2269 75.5,43.5C 72.9308,42.6044 70.9308,40.9377 69.5,38.5C 67.3691,37.8313 65.3691,37.1646 63.5,36.5 Z"/></g>
<g><path style="opacity:0.987" fill="#8658cc" d="M 43.5,51.5 C 43.2322,53.099 43.5655,54.4324 44.5,55.5C 44.5386,56.7562 44.0386,57.7562 43,58.5C 42.7266,56.8988 42.2266,55.3988 41.5,54C 34.8046,51.8499 29.8046,53.8499 26.5,60C 27.985,61.7565 27.6516,62.9232 25.5,63.5C 25.9746,60.9179 25.3079,58.9179 23.5,57.5C 21.8411,51.9383 22.5078,46.605 25.5,41.5C 27.5,41.5 29.5,41.5 31.5,41.5C 32.9498,43.9865 34.1165,43.6531 35,40.5C 36.1192,41.5521 36.6192,42.7188 36.5,44C 37.4491,44.6172 38.2825,44.4506 39,43.5C 39.7724,44.8491 40.9391,45.6824 42.5,46C 41.2613,48.1176 41.5946,49.951 43.5,51.5 Z"/></g>
<g><path style="opacity:0.996" fill="#4a35b6" d="M 63.5,36.5 C 65.3691,37.1646 67.3691,37.8313 69.5,38.5C 70.9308,40.9377 72.9308,42.6044 75.5,43.5C 75.9449,50.6119 73.2782,55.9452 67.5,59.5C 66.8333,60.8333 66.1667,60.8333 65.5,59.5C 63.2829,57.9201 60.6163,56.9201 57.5,56.5C 56.452,55.452 55.452,54.452 54.5,53.5C 58.9692,49.6893 62.3025,45.0226 64.5,39.5C 63.8333,38.8333 63.1667,38.1667 62.5,37.5C 62.6236,36.8933 62.9569,36.56 63.5,36.5 Z"/></g>
<g><path style="opacity:0.05" fill="#fefffe" d="M 75.5,43.5 C 77.0125,48.5349 76.0125,53.2015 72.5,57.5C 70.8614,58.3219 69.1947,58.9886 67.5,59.5C 73.2782,55.9452 75.9449,50.6119 75.5,43.5 Z"/></g>
<g><path style="opacity:0.134" fill="#fefffe" d="M 43.5,51.5 C 44.8333,51.5 46.1667,51.5 47.5,51.5C 50.0821,51.0254 52.0821,51.6921 53.5,53.5C 50.537,52.2588 47.537,52.2588 44.5,53.5C 44.8627,54.1835 45.1961,54.8501 45.5,55.5C 45.1667,55.5 44.8333,55.5 44.5,55.5C 43.5655,54.4324 43.2322,53.099 43.5,51.5 Z"/></g>
<g><path style="opacity:0.991" fill="#864fc8" d="M 44.5,55.5 C 44.8333,55.5 45.1667,55.5 45.5,55.5C 45.2525,57.8583 45.9192,59.8583 47.5,61.5C 46.5041,61.4142 45.6708,61.7476 45,62.5C 43.9335,60.7174 42.4335,60.2174 40.5,61C 38.5203,63.1644 36.187,64.6644 33.5,65.5C 33.5,66.8333 33.5,68.1667 33.5,69.5C 30.5825,69.6349 27.9158,68.9682 25.5,67.5C 25.5,66.1667 25.5,64.8333 25.5,63.5C 27.6516,62.9232 27.985,61.7565 26.5,60C 29.8046,53.8499 34.8046,51.8499 41.5,54C 42.2266,55.3988 42.7266,56.8988 43,58.5C 44.0386,57.7562 44.5386,56.7562 44.5,55.5 Z"/></g>
<g><path style="opacity:0.117" fill="#fbf9ff" d="M 45.5,55.5 C 46.9203,58.5885 49.2537,60.5885 52.5,61.5C 50.8333,61.5 49.1667,61.5 47.5,61.5C 45.9192,59.8583 45.2525,57.8583 45.5,55.5 Z"/></g>
<g><path style="opacity:0.157" fill="#fdfcfe" d="M 53.5,53.5 C 53.8333,53.5 54.1667,53.5 54.5,53.5C 55.452,54.452 56.452,55.452 57.5,56.5C 60.6163,56.9201 63.2829,57.9201 65.5,59.5C 62.5274,58.9159 59.5274,58.2492 56.5,57.5C 55.0905,56.4305 54.0905,55.0972 53.5,53.5 Z"/></g>
<g><path style="opacity:0.099" fill="#fefffe" d="M 23.5,57.5 C 25.3079,58.9179 25.9746,60.9179 25.5,63.5C 25.5,64.8333 25.5,66.1667 25.5,67.5C 24.7632,64.2746 24.0965,60.9412 23.5,57.5 Z"/></g>
<g><path style="opacity:0.996" fill="#8c4fc9" d="M 47.5,61.5 C 49.1667,61.5 50.8333,61.5 52.5,61.5C 53.1667,61.5 53.5,61.8333 53.5,62.5C 53.5,63.5 53.5,64.5 53.5,65.5C 51.9323,64.1305 50.099,63.1305 48,62.5C 47.4926,63.9961 47.9926,65.1627 49.5,66C 48.7471,67.487 47.9138,67.6537 47,66.5C 46.6827,68.3008 46.016,68.6341 45,67.5C 44.3848,69.1161 43.3848,70.4495 42,71.5C 40.2808,71.2346 38.4475,70.7346 36.5,70C 37.1466,71.6095 37.98,73.1095 39,74.5C 40.0113,73.6634 41.1779,73.33 42.5,73.5C 42.0882,75.9726 43.0882,77.3059 45.5,77.5C 45.5,78.1667 45.5,78.8333 45.5,79.5C 42.5,79.5 39.5,79.5 36.5,79.5C 35.8333,79.5 35.5,79.1667 35.5,78.5C 35.7105,75.248 35.0438,72.248 33.5,69.5C 33.5,68.1667 33.5,66.8333 33.5,65.5C 36.187,64.6644 38.5203,63.1644 40.5,61C 42.4335,60.2174 43.9335,60.7174 45,62.5C 45.6708,61.7476 46.5041,61.4142 47.5,61.5 Z"/></g>
<g><path style="opacity:0.985" fill="#9250c8" d="M 53.5,65.5 C 55.7354,65.2053 57.7354,65.5386 59.5,66.5C 58.1696,67.8321 56.5029,68.6655 54.5,69C 54.8333,69.3333 55.1667,69.6667 55.5,70C 54.2341,70.3095 53.0674,70.8095 52,71.5C 50.2513,70.701 48.918,71.3676 48,73.5C 47.6667,73.1667 47.3333,72.8333 47,72.5C 46.3923,74.1545 45.8923,75.8211 45.5,77.5C 43.0882,77.3059 42.0882,75.9726 42.5,73.5C 41.1779,73.33 40.0113,73.6634 39,74.5C 37.98,73.1095 37.1466,71.6095 36.5,70C 38.4475,70.7346 40.2808,71.2346 42,71.5C 43.3848,70.4495 44.3848,69.1161 45,67.5C 46.016,68.6341 46.6827,68.3008 47,66.5C 47.9138,67.6537 48.7471,67.487 49.5,66C 47.9926,65.1627 47.4926,63.9961 48,62.5C 50.099,63.1305 51.9323,64.1305 53.5,65.5 Z"/></g>
<g><path style="opacity:0.124" fill="#fffefe" d="M 25.5,67.5 C 27.9158,68.9682 30.5825,69.6349 33.5,69.5C 35.0438,72.248 35.7105,75.248 35.5,78.5C 34.8354,76.6309 34.1687,74.6309 33.5,72.5C 31.3651,71.1189 29.0318,70.1189 26.5,69.5C 26.1373,68.8165 25.8039,68.1499 25.5,67.5 Z"/></g>
<g><path style="opacity:0.998" fill="#954dc7" d="M 59.5,66.5 C 60.8333,68.1667 62.1667,69.8333 63.5,71.5C 62.0063,72.3298 60.3397,73.3298 58.5,74.5C 59.6293,76.5294 59.1293,76.8627 57,75.5C 53.9939,77.5203 52.1606,80.1869 51.5,83.5C 49.8333,83.5 48.1667,83.5 46.5,83.5C 45.8333,83.5 45.5,83.1667 45.5,82.5C 45.5,81.5 45.5,80.5 45.5,79.5C 45.5,78.8333 45.5,78.1667 45.5,77.5C 45.8923,75.8211 46.3923,74.1545 47,72.5C 47.3333,72.8333 47.6667,73.1667 48,73.5C 48.918,71.3676 50.2513,70.701 52,71.5C 53.0674,70.8095 54.2341,70.3095 55.5,70C 55.1667,69.6667 54.8333,69.3333 54.5,69C 56.5029,68.6655 58.1696,67.8321 59.5,66.5 Z"/></g>
<g><path style="opacity:0.988" fill="#9f4fc8" d="M 63.5,71.5 C 65.9413,72.5566 68.2746,73.89 70.5,75.5C 71.4909,79.4454 71.8242,83.4454 71.5,87.5C 69.1087,84.9895 66.442,83.6562 63.5,83.5C 61.2269,84.6509 58.8935,85.6509 56.5,86.5C 55.9017,87.7946 55.4017,89.1279 55,90.5C 54.6174,89.944 54.1174,89.6107 53.5,89.5C 52.2804,87.7179 51.6138,85.7179 51.5,83.5C 52.1606,80.1869 53.9939,77.5203 57,75.5C 59.1293,76.8627 59.6293,76.5294 58.5,74.5C 60.3397,73.3298 62.0063,72.3298 63.5,71.5 Z"/></g>
<g><path style="opacity:0.148" fill="#fefdfe" d="M 53.5,62.5 C 55.5676,63.8647 57.901,64.8647 60.5,65.5C 63.5858,69.2565 67.2525,72.2565 71.5,74.5C 72.5,81.5 73.5,88.5 74.5,95.5C 74.1667,97.8333 73.8333,100.167 73.5,102.5C 72.8182,103.243 72.1515,103.909 71.5,104.5C 74.0693,98.7901 74.0693,93.1235 71.5,87.5C 71.8242,83.4454 71.4909,79.4454 70.5,75.5C 68.2746,73.89 65.9413,72.5566 63.5,71.5C 62.1667,69.8333 60.8333,68.1667 59.5,66.5C 57.7354,65.5386 55.7354,65.2053 53.5,65.5C 53.5,64.5 53.5,63.5 53.5,62.5 Z"/></g>
<g><path style="opacity:0.139" fill="#fffffe" d="M 36.5,79.5 C 39.5,79.5 42.5,79.5 45.5,79.5C 45.5,80.5 45.5,81.5 45.5,82.5C 42.6343,81.0351 39.6343,80.0351 36.5,79.5 Z"/></g>
<g><path style="opacity:0.18" fill="#fffefe" d="M 46.5,83.5 C 48.1667,83.5 49.8333,83.5 51.5,83.5C 51.6138,85.7179 52.2804,87.7179 53.5,89.5C 53.7947,91.7354 53.4614,93.7354 52.5,95.5C 51.2209,96.968 49.5542,97.6347 47.5,97.5C 45.8333,97.5 44.1667,97.5 42.5,97.5C 40.3944,97.321 38.7277,96.321 37.5,94.5C 32.8804,93.5067 28.2137,93.1734 23.5,93.5C 28.3477,92.1863 33.3477,92.1863 38.5,93.5C 42.0439,96.4736 46.0439,97.1403 50.5,95.5C 51.5437,94.3774 52.2104,93.0441 52.5,91.5C 51.5217,89.223 50.8551,86.8897 50.5,84.5C 48.901,84.7678 47.5676,84.4345 46.5,83.5 Z"/></g>
<g><path style="opacity:0.989" fill="#a750ca" d="M 71.5,87.5 C 74.0693,93.1235 74.0693,98.7901 71.5,104.5C 71.5,105.167 71.1667,105.5 70.5,105.5C 68.5853,105.216 66.9187,105.549 65.5,106.5C 63.9385,104.628 62.9385,102.295 62.5,99.5C 58.9294,98.3432 55.596,97.0099 52.5,95.5C 53.4614,93.7354 53.7947,91.7354 53.5,89.5C 54.1174,89.6107 54.6174,89.944 55,90.5C 55.4017,89.1279 55.9017,87.7946 56.5,86.5C 58.8935,85.6509 61.2269,84.6509 63.5,83.5C 66.442,83.6562 69.1087,84.9895 71.5,87.5 Z"/></g>
<g><path style="opacity:0.144" fill="#fffdfe" d="M 23.5,94.5 C 21.6301,99.5318 20.9634,104.865 21.5,110.5C 20.5119,105.36 20.1786,100.026 20.5,94.5C 21.5,94.5 22.5,94.5 23.5,94.5 Z"/></g>
<g><path style="opacity:0.978" fill="#d66cdb" d="M 23.5,93.5 C 28.2137,93.1734 32.8804,93.5067 37.5,94.5C 38.7277,96.321 40.3944,97.321 42.5,97.5C 41.8649,101.621 40.6982,105.621 39,109.5C 36.8687,110.615 35.0354,111.948 33.5,113.5C 29.7878,113.039 26.1211,112.373 22.5,111.5C 21.8333,111.5 21.5,111.167 21.5,110.5C 20.9634,104.865 21.6301,99.5318 23.5,94.5C 23.5,94.1667 23.5,93.8333 23.5,93.5 Z"/></g>
<g><path style="opacity:0.997" fill="#c960d3" d="M 42.5,97.5 C 44.1667,97.5 45.8333,97.5 47.5,97.5C 56.6471,100.466 58.3138,105.799 52.5,113.5C 52.6236,114.107 52.9569,114.44 53.5,114.5C 52.9094,115.151 52.2427,115.818 51.5,116.5C 46.2079,117.495 40.8746,117.828 35.5,117.5C 35.5,117.167 35.5,116.833 35.5,116.5C 35.7148,114.821 35.0481,113.821 33.5,113.5C 35.0354,111.948 36.8687,110.615 39,109.5C 40.6982,105.621 41.8649,101.621 42.5,97.5 Z"/></g>
<g><path style="opacity:0.892" fill="#bc60d5" d="M 52.5,95.5 C 55.596,97.0099 58.9294,98.3432 62.5,99.5C 62.9385,102.295 63.9385,104.628 65.5,106.5C 63.9254,108.114 63.2587,110.114 63.5,112.5C 63.5,113.167 63.1667,113.5 62.5,113.5C 59.2869,113.19 56.2869,113.523 53.5,114.5C 52.9569,114.44 52.6236,114.107 52.5,113.5C 58.3138,105.799 56.6471,100.466 47.5,97.5C 49.5542,97.6347 51.2209,96.968 52.5,95.5 Z"/></g>
<g><path style="opacity:0.009" fill="#fefdfe" d="M 70.5,105.5 C 66.8333,106.5 64.5,108.833 63.5,112.5C 63.2587,110.114 63.9254,108.114 65.5,106.5C 66.9187,105.549 68.5853,105.216 70.5,105.5 Z"/></g>
<g><path style="opacity:0.107" fill="#fffffe" d="M 22.5,111.5 C 26.1211,112.373 29.7878,113.039 33.5,113.5C 35.0481,113.821 35.7148,114.821 35.5,116.5C 31.1093,114.986 26.7759,113.319 22.5,111.5 Z"/></g>
<g><path style="opacity:0.151" fill="#fffefd" d="M 62.5,113.5 C 59.9723,114.166 57.3056,114.832 54.5,115.5C 53.8333,116.167 53.1667,116.833 52.5,117.5C 46.6796,118.816 41.0129,118.816 35.5,117.5C 40.8746,117.828 46.2079,117.495 51.5,116.5C 52.2427,115.818 52.9094,115.151 53.5,114.5C 56.2869,113.523 59.2869,113.19 62.5,113.5 Z"/></g>
</svg>
